<mxfile host="Electron" agent="Mozilla/5.0 (Windows NT 10.0; Win64; x64) AppleWebKit/537.36 (KHTML, like Gecko) draw.io/27.0.9 Chrome/134.0.6998.205 Electron/35.4.0 Safari/537.36" version="27.0.9">
  <diagram name="Страница — 1" id="M503lQbu9yhQQV0HB1_Y">
    <mxGraphModel dx="1426" dy="841" grid="1" gridSize="10" guides="1" tooltips="1" connect="1" arrows="1" fold="1" page="1" pageScale="1" pageWidth="827" pageHeight="1169" math="0" shadow="0">
      <root>
        <mxCell id="0" />
        <mxCell id="1" parent="0" />
        <mxCell id="is2d8ssHcdv7nwQPwAMH-1" value="" style="shape=umlLifeline;perimeter=lifelinePerimeter;whiteSpace=wrap;html=1;container=1;dropTarget=0;collapsible=0;recursiveResize=0;outlineConnect=0;portConstraint=eastwest;newEdgeStyle={&quot;curved&quot;:0,&quot;rounded&quot;:0};participant=umlActor;" parent="1" vertex="1">
          <mxGeometry x="50" y="40" width="20" height="1160" as="geometry" />
        </mxCell>
        <mxCell id="is2d8ssHcdv7nwQPwAMH-2" value="Игроки" style="shape=umlLifeline;perimeter=lifelinePerimeter;whiteSpace=wrap;html=1;container=1;dropTarget=0;collapsible=0;recursiveResize=0;outlineConnect=0;portConstraint=eastwest;newEdgeStyle={&quot;curved&quot;:0,&quot;rounded&quot;:0};" parent="1" vertex="1">
          <mxGeometry x="190" y="40" width="100" height="1160" as="geometry" />
        </mxCell>
        <mxCell id="is2d8ssHcdv7nwQPwAMH-4" value="" style="html=1;points=[[0,0,0,0,5],[0,1,0,0,-5],[1,0,0,0,5],[1,1,0,0,-5]];perimeter=orthogonalPerimeter;outlineConnect=0;targetShapes=umlLifeline;portConstraint=eastwest;newEdgeStyle={&quot;curved&quot;:0,&quot;rounded&quot;:0};" parent="is2d8ssHcdv7nwQPwAMH-2" vertex="1">
          <mxGeometry x="45" y="140" width="10" height="120" as="geometry" />
        </mxCell>
        <mxCell id="is2d8ssHcdv7nwQPwAMH-12" value="" style="html=1;points=[[0,0,0,0,5],[0,1,0,0,-5],[1,0,0,0,5],[1,1,0,0,-5]];perimeter=orthogonalPerimeter;outlineConnect=0;targetShapes=umlLifeline;portConstraint=eastwest;newEdgeStyle={&quot;curved&quot;:0,&quot;rounded&quot;:0};" parent="is2d8ssHcdv7nwQPwAMH-2" vertex="1">
          <mxGeometry x="45" y="280" width="10" height="70" as="geometry" />
        </mxCell>
        <mxCell id="is2d8ssHcdv7nwQPwAMH-17" value="" style="html=1;points=[[0,0,0,0,5],[0,1,0,0,-5],[1,0,0,0,5],[1,1,0,0,-5]];perimeter=orthogonalPerimeter;outlineConnect=0;targetShapes=umlLifeline;portConstraint=eastwest;newEdgeStyle={&quot;curved&quot;:0,&quot;rounded&quot;:0};" parent="is2d8ssHcdv7nwQPwAMH-2" vertex="1">
          <mxGeometry x="45" y="450" width="10" height="70" as="geometry" />
        </mxCell>
        <mxCell id="is2d8ssHcdv7nwQPwAMH-24" value="" style="html=1;points=[[0,0,0,0,5],[0,1,0,0,-5],[1,0,0,0,5],[1,1,0,0,-5]];perimeter=orthogonalPerimeter;outlineConnect=0;targetShapes=umlLifeline;portConstraint=eastwest;newEdgeStyle={&quot;curved&quot;:0,&quot;rounded&quot;:0};" parent="is2d8ssHcdv7nwQPwAMH-2" vertex="1">
          <mxGeometry x="45" y="620" width="10" height="110" as="geometry" />
        </mxCell>
        <mxCell id="is2d8ssHcdv7nwQPwAMH-32" value="" style="html=1;points=[[0,0,0,0,5],[0,1,0,0,-5],[1,0,0,0,5],[1,1,0,0,-5]];perimeter=orthogonalPerimeter;outlineConnect=0;targetShapes=umlLifeline;portConstraint=eastwest;newEdgeStyle={&quot;curved&quot;:0,&quot;rounded&quot;:0};" parent="is2d8ssHcdv7nwQPwAMH-2" vertex="1">
          <mxGeometry x="45" y="750" width="10" height="70" as="geometry" />
        </mxCell>
        <mxCell id="is2d8ssHcdv7nwQPwAMH-37" value="" style="html=1;points=[[0,0,0,0,5],[0,1,0,0,-5],[1,0,0,0,5],[1,1,0,0,-5]];perimeter=orthogonalPerimeter;outlineConnect=0;targetShapes=umlLifeline;portConstraint=eastwest;newEdgeStyle={&quot;curved&quot;:0,&quot;rounded&quot;:0};" parent="is2d8ssHcdv7nwQPwAMH-2" vertex="1">
          <mxGeometry x="45" y="940" width="10" height="70" as="geometry" />
        </mxCell>
        <mxCell id="is2d8ssHcdv7nwQPwAMH-3" value="База&lt;br&gt;Игроков" style="shape=umlLifeline;perimeter=lifelinePerimeter;whiteSpace=wrap;html=1;container=1;dropTarget=0;collapsible=0;recursiveResize=0;outlineConnect=0;portConstraint=eastwest;newEdgeStyle={&quot;curved&quot;:0,&quot;rounded&quot;:0};" parent="1" vertex="1">
          <mxGeometry x="390" y="40" width="100" height="1160" as="geometry" />
        </mxCell>
        <mxCell id="is2d8ssHcdv7nwQPwAMH-6" value="" style="html=1;points=[[0,0,0,0,5],[0,1,0,0,-5],[1,0,0,0,5],[1,1,0,0,-5]];perimeter=orthogonalPerimeter;outlineConnect=0;targetShapes=umlLifeline;portConstraint=eastwest;newEdgeStyle={&quot;curved&quot;:0,&quot;rounded&quot;:0};" parent="is2d8ssHcdv7nwQPwAMH-3" vertex="1">
          <mxGeometry x="45" y="160" width="10" height="80" as="geometry" />
        </mxCell>
        <mxCell id="is2d8ssHcdv7nwQPwAMH-11" value="" style="html=1;points=[[0,0,0,0,5],[0,1,0,0,-5],[1,0,0,0,5],[1,1,0,0,-5]];perimeter=orthogonalPerimeter;outlineConnect=0;targetShapes=umlLifeline;portConstraint=eastwest;newEdgeStyle={&quot;curved&quot;:0,&quot;rounded&quot;:0};" parent="is2d8ssHcdv7nwQPwAMH-3" vertex="1">
          <mxGeometry x="45" y="280" width="10" height="50" as="geometry" />
        </mxCell>
        <mxCell id="is2d8ssHcdv7nwQPwAMH-19" value="" style="html=1;points=[[0,0,0,0,5],[0,1,0,0,-5],[1,0,0,0,5],[1,1,0,0,-5]];perimeter=orthogonalPerimeter;outlineConnect=0;targetShapes=umlLifeline;portConstraint=eastwest;newEdgeStyle={&quot;curved&quot;:0,&quot;rounded&quot;:0};" parent="is2d8ssHcdv7nwQPwAMH-3" vertex="1">
          <mxGeometry x="45" y="460" width="10" height="50" as="geometry" />
        </mxCell>
        <mxCell id="is2d8ssHcdv7nwQPwAMH-26" value="" style="html=1;points=[[0,0,0,0,5],[0,1,0,0,-5],[1,0,0,0,5],[1,1,0,0,-5]];perimeter=orthogonalPerimeter;outlineConnect=0;targetShapes=umlLifeline;portConstraint=eastwest;newEdgeStyle={&quot;curved&quot;:0,&quot;rounded&quot;:0};" parent="is2d8ssHcdv7nwQPwAMH-3" vertex="1">
          <mxGeometry x="45" y="635" width="10" height="75" as="geometry" />
        </mxCell>
        <mxCell id="is2d8ssHcdv7nwQPwAMH-31" value="" style="html=1;points=[[0,0,0,0,5],[0,1,0,0,-5],[1,0,0,0,5],[1,1,0,0,-5]];perimeter=orthogonalPerimeter;outlineConnect=0;targetShapes=umlLifeline;portConstraint=eastwest;newEdgeStyle={&quot;curved&quot;:0,&quot;rounded&quot;:0};" parent="is2d8ssHcdv7nwQPwAMH-3" vertex="1">
          <mxGeometry x="45" y="750" width="10" height="60" as="geometry" />
        </mxCell>
        <mxCell id="is2d8ssHcdv7nwQPwAMH-40" value="" style="html=1;points=[[0,0,0,0,5],[0,1,0,0,-5],[1,0,0,0,5],[1,1,0,0,-5]];perimeter=orthogonalPerimeter;outlineConnect=0;targetShapes=umlLifeline;portConstraint=eastwest;newEdgeStyle={&quot;curved&quot;:0,&quot;rounded&quot;:0};" parent="is2d8ssHcdv7nwQPwAMH-3" vertex="1">
          <mxGeometry x="45" y="950" width="10" height="50" as="geometry" />
        </mxCell>
        <mxCell id="is2d8ssHcdv7nwQPwAMH-5" value="найти_игрока&lt;br&gt;(никнейм)" style="html=1;verticalAlign=bottom;startArrow=oval;endArrow=block;startSize=8;curved=0;rounded=0;entryX=0;entryY=0;entryDx=0;entryDy=5;" parent="1" source="is2d8ssHcdv7nwQPwAMH-1" target="is2d8ssHcdv7nwQPwAMH-4" edge="1">
          <mxGeometry relative="1" as="geometry">
            <mxPoint x="165" y="185" as="sourcePoint" />
          </mxGeometry>
        </mxCell>
        <mxCell id="is2d8ssHcdv7nwQPwAMH-7" value="найти_игрока&lt;br&gt;(никнейм)" style="html=1;verticalAlign=bottom;endArrow=block;curved=0;rounded=0;entryX=0;entryY=0;entryDx=0;entryDy=5;entryPerimeter=0;" parent="1" source="is2d8ssHcdv7nwQPwAMH-4" target="is2d8ssHcdv7nwQPwAMH-6" edge="1">
          <mxGeometry width="80" relative="1" as="geometry">
            <mxPoint x="310" y="200" as="sourcePoint" />
            <mxPoint x="390" y="200" as="targetPoint" />
          </mxGeometry>
        </mxCell>
        <mxCell id="is2d8ssHcdv7nwQPwAMH-8" value="пользователь" style="html=1;verticalAlign=bottom;endArrow=open;dashed=1;endSize=8;curved=0;rounded=0;exitX=0;exitY=1;exitDx=0;exitDy=-5;exitPerimeter=0;" parent="1" source="is2d8ssHcdv7nwQPwAMH-6" target="is2d8ssHcdv7nwQPwAMH-4" edge="1">
          <mxGeometry relative="1" as="geometry">
            <mxPoint x="390" y="270" as="sourcePoint" />
            <mxPoint x="310" y="270" as="targetPoint" />
          </mxGeometry>
        </mxCell>
        <mxCell id="is2d8ssHcdv7nwQPwAMH-9" value="пользователь" style="html=1;verticalAlign=bottom;endArrow=open;dashed=1;endSize=8;curved=0;rounded=0;exitX=0;exitY=1;exitDx=0;exitDy=-5;exitPerimeter=0;" parent="1" source="is2d8ssHcdv7nwQPwAMH-4" target="is2d8ssHcdv7nwQPwAMH-1" edge="1">
          <mxGeometry relative="1" as="geometry">
            <mxPoint x="180" y="290" as="sourcePoint" />
            <mxPoint x="100" y="290" as="targetPoint" />
          </mxGeometry>
        </mxCell>
        <mxCell id="is2d8ssHcdv7nwQPwAMH-10" value="Если пользователь есть" style="shape=umlFrame;whiteSpace=wrap;html=1;pointerEvents=0;width=160;height=30;" parent="1" vertex="1">
          <mxGeometry x="50" y="230" width="400" height="80" as="geometry" />
        </mxCell>
        <mxCell id="is2d8ssHcdv7nwQPwAMH-13" value="None" style="html=1;verticalAlign=bottom;endArrow=open;dashed=1;endSize=8;curved=0;rounded=0;exitX=0;exitY=1;exitDx=0;exitDy=-5;exitPerimeter=0;" parent="1" source="is2d8ssHcdv7nwQPwAMH-11" target="is2d8ssHcdv7nwQPwAMH-12" edge="1">
          <mxGeometry relative="1" as="geometry">
            <mxPoint x="390" y="360" as="sourcePoint" />
            <mxPoint x="310" y="360" as="targetPoint" />
          </mxGeometry>
        </mxCell>
        <mxCell id="is2d8ssHcdv7nwQPwAMH-14" value="None" style="html=1;verticalAlign=bottom;endArrow=open;dashed=1;endSize=8;curved=0;rounded=0;exitX=0;exitY=1;exitDx=0;exitDy=-5;exitPerimeter=0;" parent="1" source="is2d8ssHcdv7nwQPwAMH-12" target="is2d8ssHcdv7nwQPwAMH-1" edge="1">
          <mxGeometry relative="1" as="geometry">
            <mxPoint x="190" y="380" as="sourcePoint" />
            <mxPoint x="110" y="380" as="targetPoint" />
          </mxGeometry>
        </mxCell>
        <mxCell id="is2d8ssHcdv7nwQPwAMH-15" value="Если пользователя нет" style="shape=umlFrame;whiteSpace=wrap;html=1;pointerEvents=0;width=160;height=30;" parent="1" vertex="1">
          <mxGeometry x="50" y="320" width="400" height="80" as="geometry" />
        </mxCell>
        <mxCell id="is2d8ssHcdv7nwQPwAMH-16" value="Найти игрока" style="shape=umlFrame;whiteSpace=wrap;html=1;pointerEvents=0;width=210;height=30;" parent="1" vertex="1">
          <mxGeometry x="40" y="120" width="420" height="290" as="geometry" />
        </mxCell>
        <mxCell id="is2d8ssHcdv7nwQPwAMH-18" value="список_игроков" style="html=1;verticalAlign=bottom;startArrow=oval;endArrow=block;startSize=8;curved=0;rounded=0;entryX=0;entryY=0;entryDx=0;entryDy=5;" parent="1" source="is2d8ssHcdv7nwQPwAMH-1" target="is2d8ssHcdv7nwQPwAMH-17" edge="1">
          <mxGeometry relative="1" as="geometry">
            <mxPoint x="165" y="495" as="sourcePoint" />
          </mxGeometry>
        </mxCell>
        <mxCell id="is2d8ssHcdv7nwQPwAMH-20" value="список_игроков" style="html=1;verticalAlign=bottom;endArrow=block;curved=0;rounded=0;entryX=0;entryY=0;entryDx=0;entryDy=5;entryPerimeter=0;" parent="1" source="is2d8ssHcdv7nwQPwAMH-17" target="is2d8ssHcdv7nwQPwAMH-19" edge="1">
          <mxGeometry width="80" relative="1" as="geometry">
            <mxPoint x="320" y="510" as="sourcePoint" />
            <mxPoint x="400" y="510" as="targetPoint" />
          </mxGeometry>
        </mxCell>
        <mxCell id="is2d8ssHcdv7nwQPwAMH-21" value="list&amp;lt;Игрок&amp;gt;" style="html=1;verticalAlign=bottom;endArrow=open;dashed=1;endSize=8;curved=0;rounded=0;exitX=0;exitY=1;exitDx=0;exitDy=-5;exitPerimeter=0;" parent="1" source="is2d8ssHcdv7nwQPwAMH-19" target="is2d8ssHcdv7nwQPwAMH-17" edge="1">
          <mxGeometry relative="1" as="geometry">
            <mxPoint x="400" y="560" as="sourcePoint" />
            <mxPoint x="320" y="560" as="targetPoint" />
          </mxGeometry>
        </mxCell>
        <mxCell id="is2d8ssHcdv7nwQPwAMH-22" value="list&amp;lt;Игрок&amp;gt;" style="html=1;verticalAlign=bottom;endArrow=open;dashed=1;endSize=8;curved=0;rounded=0;exitX=0;exitY=1;exitDx=0;exitDy=-5;exitPerimeter=0;" parent="1" source="is2d8ssHcdv7nwQPwAMH-17" target="is2d8ssHcdv7nwQPwAMH-1" edge="1">
          <mxGeometry relative="1" as="geometry">
            <mxPoint x="200" y="560" as="sourcePoint" />
            <mxPoint x="60" y="560" as="targetPoint" />
          </mxGeometry>
        </mxCell>
        <mxCell id="is2d8ssHcdv7nwQPwAMH-23" value="Список игроков" style="shape=umlFrame;whiteSpace=wrap;html=1;pointerEvents=0;width=210;height=30;" parent="1" vertex="1">
          <mxGeometry x="40" y="440" width="420" height="130" as="geometry" />
        </mxCell>
        <mxCell id="is2d8ssHcdv7nwQPwAMH-25" value="удалить_игрока&lt;br&gt;(никнейм)" style="html=1;verticalAlign=bottom;startArrow=oval;endArrow=block;startSize=8;curved=0;rounded=0;entryX=0;entryY=0;entryDx=0;entryDy=5;" parent="1" source="is2d8ssHcdv7nwQPwAMH-1" target="is2d8ssHcdv7nwQPwAMH-24" edge="1">
          <mxGeometry relative="1" as="geometry">
            <mxPoint x="165" y="665" as="sourcePoint" />
          </mxGeometry>
        </mxCell>
        <mxCell id="is2d8ssHcdv7nwQPwAMH-27" value="удалить_игрока&lt;br&gt;(никнейм)" style="html=1;verticalAlign=bottom;endArrow=block;curved=0;rounded=0;entryX=0;entryY=0;entryDx=0;entryDy=5;" parent="1" source="is2d8ssHcdv7nwQPwAMH-24" target="is2d8ssHcdv7nwQPwAMH-26" edge="1">
          <mxGeometry relative="1" as="geometry">
            <mxPoint x="365" y="665" as="sourcePoint" />
          </mxGeometry>
        </mxCell>
        <mxCell id="is2d8ssHcdv7nwQPwAMH-28" value="None" style="html=1;verticalAlign=bottom;endArrow=open;dashed=1;endSize=8;curved=0;rounded=0;exitX=0;exitY=1;exitDx=0;exitDy=-5;exitPerimeter=0;" parent="1" source="is2d8ssHcdv7nwQPwAMH-26" target="is2d8ssHcdv7nwQPwAMH-24" edge="1">
          <mxGeometry relative="1" as="geometry">
            <mxPoint x="365" y="735" as="targetPoint" />
          </mxGeometry>
        </mxCell>
        <mxCell id="is2d8ssHcdv7nwQPwAMH-29" value="Если пользователь есть" style="shape=umlFrame;whiteSpace=wrap;html=1;pointerEvents=0;width=160;height=30;" parent="1" vertex="1">
          <mxGeometry x="50" y="700" width="400" height="80" as="geometry" />
        </mxCell>
        <mxCell id="is2d8ssHcdv7nwQPwAMH-30" value="None" style="html=1;verticalAlign=bottom;endArrow=open;dashed=1;endSize=8;curved=0;rounded=0;exitX=0;exitY=1;exitDx=0;exitDy=-5;exitPerimeter=0;" parent="1" source="is2d8ssHcdv7nwQPwAMH-24" target="is2d8ssHcdv7nwQPwAMH-1" edge="1">
          <mxGeometry relative="1" as="geometry">
            <mxPoint x="180" y="760" as="sourcePoint" />
            <mxPoint x="100" y="760" as="targetPoint" />
          </mxGeometry>
        </mxCell>
        <mxCell id="is2d8ssHcdv7nwQPwAMH-33" value="ERROR" style="html=1;verticalAlign=bottom;endArrow=open;dashed=1;endSize=8;curved=0;rounded=0;exitX=0;exitY=1;exitDx=0;exitDy=-5;exitPerimeter=0;" parent="1" source="is2d8ssHcdv7nwQPwAMH-31" target="is2d8ssHcdv7nwQPwAMH-32" edge="1">
          <mxGeometry relative="1" as="geometry">
            <mxPoint x="380" y="830" as="sourcePoint" />
            <mxPoint x="300" y="830" as="targetPoint" />
          </mxGeometry>
        </mxCell>
        <mxCell id="is2d8ssHcdv7nwQPwAMH-34" value="ERROR" style="html=1;verticalAlign=bottom;endArrow=open;dashed=1;endSize=8;curved=0;rounded=0;exitX=0;exitY=1;exitDx=0;exitDy=-5;exitPerimeter=0;" parent="1" source="is2d8ssHcdv7nwQPwAMH-32" target="is2d8ssHcdv7nwQPwAMH-1" edge="1">
          <mxGeometry relative="1" as="geometry">
            <mxPoint x="200" y="860" as="sourcePoint" />
            <mxPoint x="120" y="860" as="targetPoint" />
          </mxGeometry>
        </mxCell>
        <mxCell id="is2d8ssHcdv7nwQPwAMH-35" value="Если пользователя нет" style="shape=umlFrame;whiteSpace=wrap;html=1;pointerEvents=0;width=160;height=30;" parent="1" vertex="1">
          <mxGeometry x="50" y="790" width="400" height="80" as="geometry" />
        </mxCell>
        <mxCell id="is2d8ssHcdv7nwQPwAMH-36" value="Удалить игрока" style="shape=umlFrame;whiteSpace=wrap;html=1;pointerEvents=0;width=210;height=30;" parent="1" vertex="1">
          <mxGeometry x="40" y="600" width="420" height="280" as="geometry" />
        </mxCell>
        <mxCell id="is2d8ssHcdv7nwQPwAMH-38" value="добавить_игрока&lt;br&gt;(никнейм)" style="html=1;verticalAlign=bottom;startArrow=oval;endArrow=block;startSize=8;curved=0;rounded=0;entryX=0;entryY=0;entryDx=0;entryDy=5;" parent="1" source="is2d8ssHcdv7nwQPwAMH-1" target="is2d8ssHcdv7nwQPwAMH-37" edge="1">
          <mxGeometry relative="1" as="geometry">
            <mxPoint x="57.25" y="985" as="sourcePoint" />
          </mxGeometry>
        </mxCell>
        <mxCell id="is2d8ssHcdv7nwQPwAMH-39" value="добавить_игрока&lt;br&gt;(никнейм)" style="html=1;verticalAlign=bottom;endArrow=block;curved=0;rounded=0;entryX=0;entryY=0;entryDx=0;entryDy=5;entryPerimeter=0;" parent="1" source="is2d8ssHcdv7nwQPwAMH-37" target="is2d8ssHcdv7nwQPwAMH-40" edge="1">
          <mxGeometry width="80" relative="1" as="geometry">
            <mxPoint x="268.25" y="1000" as="sourcePoint" />
            <mxPoint x="387.75" y="1000" as="targetPoint" />
          </mxGeometry>
        </mxCell>
        <mxCell id="is2d8ssHcdv7nwQPwAMH-41" value="Добавить игрока" style="shape=umlFrame;whiteSpace=wrap;html=1;pointerEvents=0;width=210;height=30;" parent="1" vertex="1">
          <mxGeometry x="40" y="910" width="420" height="160" as="geometry" />
        </mxCell>
        <mxCell id="is2d8ssHcdv7nwQPwAMH-42" value="None" style="html=1;verticalAlign=bottom;endArrow=open;dashed=1;endSize=8;curved=0;rounded=0;exitX=0;exitY=1;exitDx=0;exitDy=-5;exitPerimeter=0;" parent="1" source="is2d8ssHcdv7nwQPwAMH-40" target="is2d8ssHcdv7nwQPwAMH-37" edge="1">
          <mxGeometry relative="1" as="geometry">
            <mxPoint x="387.75" y="1040" as="sourcePoint" />
            <mxPoint x="307.75" y="1040" as="targetPoint" />
          </mxGeometry>
        </mxCell>
        <mxCell id="is2d8ssHcdv7nwQPwAMH-43" value="None" style="html=1;verticalAlign=bottom;endArrow=open;dashed=1;endSize=8;curved=0;rounded=0;exitX=0;exitY=1;exitDx=0;exitDy=-5;exitPerimeter=0;" parent="1" source="is2d8ssHcdv7nwQPwAMH-37" target="is2d8ssHcdv7nwQPwAMH-1" edge="1">
          <mxGeometry relative="1" as="geometry">
            <mxPoint x="187.75" y="1040" as="sourcePoint" />
            <mxPoint x="57.25" y="1045" as="targetPoint" />
          </mxGeometry>
        </mxCell>
        <mxCell id="ufZG_Nan0cAt-hPa7Lp9-1" value="" style="rounded=1;whiteSpace=wrap;html=1;" vertex="1" parent="1">
          <mxGeometry x="590" y="150" width="120" height="60" as="geometry" />
        </mxCell>
      </root>
    </mxGraphModel>
  </diagram>
</mxfile>
